<svg version="1.1" id="Layer_1" xmlns="http://www.w3.org/2000/svg" xmlns:xlink="http://www.w3.org/1999/xlink" x="0px" y="0px"
	 width="100%" viewBox="0 0 736 704" enable-background="new 0 0 736 704" xml:space="preserve">
<path fill="#6366f1" opacity="1.000000" stroke="none" 
	d="
M230.939590,327.743774 
	C273.372681,329.666199 312.126007,341.766327 347.987061,363.619507 
	C385.759583,386.637573 414.959747,417.612305 435.634949,456.641174 
	C445.350128,474.980743 452.372162,494.352631 456.939240,514.602295 
	C457.294159,516.176086 457.953613,517.790771 456.986725,519.844482 
	C452.824127,519.878418 448.758087,518.242310 444.474670,518.111450 
	C437.032501,517.884033 429.817993,518.552429 422.916656,521.362183 
	C418.997742,522.957703 417.129639,521.787415 416.217499,517.726685 
	C409.428467,487.502411 395.018890,461.077362 375.407562,437.399384 
	C353.935883,411.475311 327.524414,392.432465 295.932373,380.400940 
	C268.559784,369.976318 240.393021,365.214020 211.255951,367.508820 
	C178.225159,370.110291 147.376495,379.963867 118.930092,397.177063 
	C103.003342,406.814423 88.608200,418.273254 75.899475,431.870239 
	C74.815926,433.029572 73.874107,434.606506 70.964836,434.236053 
	C70.964836,427.646240 70.565872,420.905975 71.061104,414.232056 
	C71.753105,404.906464 71.757591,395.586884 71.702721,386.263977 
	C71.681976,382.739288 72.865990,380.419098 75.724213,378.322083 
	C107.637894,354.908051 142.769775,338.838684 181.814743,331.750793 
	C197.877045,328.834991 214.065842,326.986023 230.939590,327.743774 
z"/>
<path fill="#6366f1" opacity="1.000000" stroke="none" 
	d="
M633.087036,464.263855 
	C623.866882,466.228394 623.919434,466.228394 623.918945,457.193207 
	C623.916260,407.890778 623.833374,358.588318 623.904846,309.286011 
	C623.920715,298.360901 619.976929,289.609375 611.362793,282.833771 
	C583.491882,260.911530 555.658142,238.941940 527.848938,216.941422 
	C510.484039,203.203674 493.185760,189.381699 475.871887,175.579544 
	C474.855621,174.769424 473.967682,173.798325 473.040497,172.921463 
	C473.910370,170.166519 476.310852,169.405716 478.169464,168.182724 
	C485.416321,163.414139 491.011078,157.096542 495.451477,149.762756 
	C499.443756,143.169159 499.382751,142.996872 505.657257,147.916000 
	C528.061096,165.480209 550.452454,183.060776 572.770996,200.733078 
	C595.745728,218.924881 618.591614,237.279465 641.567871,255.469269 
	C655.364319,266.391632 662.283569,280.718201 663.328491,298.101044 
	C664.928833,324.723267 663.806458,351.370544 664.021851,378.005096 
	C664.242798,405.319580 664.075073,432.637268 664.050781,459.953552 
	C664.044861,466.559174 663.892822,466.776093 657.713257,465.236786 
	C649.679260,463.235535 641.610596,463.377869 633.087036,464.263855 
z"/>
<path fill="#6366f1" opacity="1.000000" stroke="none" 
	d="
M151.698456,551.986938 
	C158.104538,513.335388 189.728760,486.933075 228.080704,487.795776 
	C265.377472,488.634705 296.639984,518.454224 300.480713,555.619751 
	C304.118805,590.824463 281.678528,625.553345 246.158691,635.369568 
	C202.827560,647.344543 161.645584,619.952881 152.622284,579.659546 
	C150.593628,570.600647 150.106659,561.571045 151.698456,551.986938 
M249.630280,536.858459 
	C245.273315,532.841125 240.242737,529.933594 234.555069,528.364685 
	C208.014694,521.043945 184.037079,545.077881 190.876465,572.081238 
	C194.551529,586.591125 208.730850,598.403198 222.800369,598.675476 
	C239.298660,598.994690 251.971512,591.384399 258.118073,576.012695 
	C263.831512,561.724182 260.668976,548.623901 249.630280,536.858459 
z"/>
<path fill="#6366f1" opacity="1.000000" stroke="none" 
	d="
M454.198883,403.777466 
	C447.796234,395.438385 441.747772,387.270050 434.475433,380.122589 
	C432.595337,378.274811 431.360321,376.549408 434.547058,374.645477 
	C443.863190,369.079620 450.101868,360.786438 455.088989,351.353394 
	C457.694183,346.425720 458.240967,346.327637 462.178223,350.401001 
	C480.817993,369.684967 496.224365,391.305634 508.745697,415.019104 
	C523.773560,443.479675 534.760681,473.466614 540.570984,505.058502 
	C545.144043,529.923645 547.442444,555.073181 545.512817,580.545959 
	C543.746765,603.859314 539.915955,626.727722 534.446289,649.402893 
	C533.575562,653.012878 532.039795,654.399292 528.381775,654.351196 
	C517.724121,654.210999 507.062103,654.229309 496.404205,654.368530 
	C492.287689,654.422302 491.545044,652.740234 492.675415,649.124451 
	C499.251404,628.088684 503.438324,606.581116 505.175537,584.603271 
	C507.973724,549.203247 504.614838,514.508789 493.638824,480.614441 
	C484.684174,452.962219 471.679840,427.432281 454.198883,403.777466 
z"/>
<path fill="#6366f1" opacity="1.000000" stroke="none" 
	d="
M80.804489,325.867737 
	C78.518913,326.871124 76.844353,328.421143 74.729271,328.514374 
	C73.101669,327.673676 73.033791,326.272949 73.076752,324.964417 
	C73.532120,311.093872 74.841393,297.389008 80.907562,284.594513 
	C82.020897,282.246307 83.441841,280.552124 85.958206,279.440643 
	C119.858894,264.466766 155.227264,255.306091 192.111099,251.551331 
	C249.870255,245.671448 305.080841,255.270523 358.198212,278.068634 
	C365.949249,281.395416 373.423981,285.365845 380.937836,288.995544 
	C380.284760,292.343811 377.657501,293.331055 376.035706,295.125793 
	C370.180542,301.605225 365.076477,308.532867 362.046234,316.810699 
	C360.690277,320.514801 358.871582,321.543396 354.915436,319.492310 
	C325.774445,304.383606 294.536835,295.730103 262.177338,291.652344 
	C212.768600,285.426117 164.633911,291.406921 118.009628,309.158478 
	C105.387009,313.964355 93.232880,319.760376 80.804489,325.867737 
z"/>
<path fill="#6366f1" opacity="1.000000" stroke="none" 
	d="
M443.543518,196.439941 
	C473.634033,220.458130 503.451752,244.245880 533.273376,268.028748 
	C538.167542,271.931885 538.289429,272.458099 533.555237,276.004089 
	C526.072693,281.608765 520.266785,288.604340 515.989807,296.834106 
	C513.983826,300.693939 512.120300,300.939117 508.751953,298.217072 
	C474.943085,270.895355 441.029114,243.703766 407.168579,216.445877 
	C397.830719,208.928864 388.606049,201.271255 379.269165,193.753036 
	C368.067383,184.733154 363.918915,184.803543 352.667938,194.097443 
	C341.630127,203.215240 330.608856,212.353348 319.625977,221.537064 
	C317.594635,223.235611 315.596924,224.146667 312.810272,223.615799 
	C299.402710,221.061554 285.959961,218.702377 272.399658,217.069595 
	C270.996643,216.900635 269.399719,216.824356 268.467255,215.395584 
	C268.553314,213.570236 270.057159,212.886353 271.165710,211.973236 
	C292.766785,194.180420 314.354980,176.371628 336.027771,158.666428 
	C342.764862,153.162674 349.964905,148.499054 358.719269,146.565002 
	C372.295746,143.565598 383.317322,149.350784 393.409210,156.971680 
	C410.283813,169.714478 426.676453,183.095490 443.543518,196.439941 
z"/>
<path fill="#6366f1" opacity="1.000000" stroke="none" 
	d="
M369.299255,507.861267 
	C377.111053,527.657959 381.231293,547.709778 380.228271,568.711487 
	C378.778595,599.066406 368.808258,626.283081 350.462097,650.473206 
	C348.891998,652.543457 347.149475,654.227173 344.341492,654.227295 
	C328.849091,654.227905 313.356659,654.233887 297.864288,654.206604 
	C297.252991,654.205505 296.642273,653.885620 295.995880,653.704346 
	C295.781616,650.969971 298.084167,650.320801 299.476654,649.153809 
	C319.429535,632.432007 333.042725,611.508118 338.285797,586.082458 
	C344.767517,554.649902 339.045166,525.224854 320.299927,498.660706 
	C303.396606,474.706757 279.966370,460.943085 251.893326,454.411469 
	C247.669434,453.428680 246.303848,451.962952 247.633530,447.603699 
	C250.165970,439.301056 248.138229,431.126648 246.167679,422.998962 
	C245.591675,420.623169 244.204132,418.366119 244.931152,415.258575 
	C251.698135,414.996155 258.274750,416.600739 264.792297,418.105316 
	C304.440430,427.257935 334.549286,449.833374 356.688629,483.624603 
	C361.646484,491.191742 365.393158,499.343262 369.299255,507.861267 
z"/>
<path fill="#6366f1" opacity="1.000000" stroke="none" 
	d="
M78.644394,591.118225 
	C70.284576,545.607056 80.768593,505.122925 109.143120,469.414703 
	C118.461845,457.687469 129.648865,447.605835 142.012192,438.936829 
	C145.478073,436.506592 147.197815,437.288269 147.863373,441.087738 
	C149.679596,451.455872 153.723907,460.845184 160.057739,469.216888 
	C162.306885,472.189789 161.070862,473.729340 158.513885,475.625671 
	C138.850525,490.208527 125.348610,509.251190 118.931374,532.871643 
	C110.906693,562.408936 113.365089,590.916321 129.360458,617.572754 
	C136.619446,629.669983 145.896790,640.072266 156.933319,648.888184 
	C158.595398,650.215881 160.513580,651.316650 161.379227,653.335022 
	C161.023483,654.413147 160.243057,654.619385 159.382248,654.611694 
	C144.062332,654.475220 128.742584,654.259827 113.422569,654.240417 
	C110.085480,654.236206 107.781586,653.058289 105.816559,650.430664 
	C92.576515,632.725830 82.923180,613.387695 78.644394,591.118225 
z"/>
<path fill="#6366f1" opacity="1.000000" stroke="none" 
	d="
M267.867554,168.877579 
	C258.245331,176.746582 248.888168,184.378342 238.292984,193.019852 
	C235.343109,178.575317 228.283585,167.927597 218.079422,158.703247 
	C226.341049,151.791260 233.933411,145.363602 241.606293,139.033569 
	C267.689789,117.515076 293.626801,95.813965 319.954865,74.598480 
	C343.537750,55.595081 370.021240,55.018890 397.424896,64.368690 
	C407.173492,67.694794 416.097931,72.885269 423.655426,79.858673 
	C422.966614,82.534828 420.978912,83.350029 419.397095,84.436569 
	C411.234009,90.043633 405.081757,97.244209 400.947876,106.298210 
	C397.760864,113.278221 397.669525,113.042999 391.282013,108.301224 
	C381.761597,101.233704 371.382996,96.857376 359.161194,99.401260 
	C351.946960,100.902855 345.950745,104.822273 340.383759,109.370674 
	C316.261169,129.079620 292.209869,148.875854 267.867554,168.877579 
z"/>
<path fill="#6366f1" opacity="1.000000" stroke="none" 
	d="
M612.757874,603.763794 
	C619.358459,596.756653 622.048523,588.471619 622.740967,579.466919 
	C623.110718,574.657898 623.011597,569.811951 623.096375,564.982178 
	C623.149658,561.947815 624.502930,560.579041 627.533936,561.614746 
	C637.770752,565.112427 648.007141,565.539368 658.352844,562.022400 
	C661.063293,561.100891 662.960022,562.045410 663.025208,565.266602 
	C663.524048,589.939941 659.410583,613.139282 641.219116,631.626526 
	C628.059326,645.000366 611.972412,652.026855 593.270630,653.518677 
	C586.780029,654.036377 580.314026,654.206848 573.822510,654.249756 
	C570.765503,654.270081 569.606384,653.180542 570.412903,649.971497 
	C573.252136,638.675110 576.016541,627.358032 578.618530,616.005066 
	C579.330322,612.899414 581.278076,612.650696 583.784180,612.677490 
	C588.763733,612.730835 593.724915,613.042847 598.658447,611.635620 
	C603.907654,610.138306 608.551758,607.759094 612.757874,603.763794 
z"/>
<path fill="#6366f1" opacity="1.000000" stroke="none" 
	d="
M565.608032,368.653442 
	C571.554688,367.972687 576.768677,366.278351 581.847656,364.175171 
	C585.432495,362.690704 587.481873,362.969360 587.439087,367.620087 
	C587.109863,403.397064 587.525146,439.174438 586.544250,474.954010 
	C585.864624,499.744598 586.324341,524.566040 586.220886,549.373474 
	C586.211670,551.580627 586.808594,553.958191 585.225281,556.279663 
	C582.866394,555.014832 582.926270,552.960205 582.818848,551.069763 
	C580.327271,507.251831 569.664368,465.260864 552.954224,424.916779 
	C547.211975,411.053040 548.063904,397.336121 548.259460,383.277740 
	C548.310303,379.621918 548.738586,375.970123 548.753967,372.315430 
	C548.765808,369.522400 549.876282,368.485077 552.669312,368.603760 
	C556.824341,368.780365 560.992126,368.656860 565.608032,368.653442 
z"/>
<path fill="#6366f1" opacity="1.000000" stroke="none" 
	d="
M625.030884,542.115234 
	C611.211975,533.229187 605.142212,516.897766 610.180725,502.807220 
	C615.604126,487.640411 631.696289,477.114685 646.337280,479.157501 
	C662.781433,481.451935 675.962158,494.604248 677.000305,510.704834 
	C677.850708,523.893616 672.161072,534.424316 661.205933,541.672302 
	C649.544800,549.387390 637.424927,549.217102 625.030884,542.115234 
z"/>
<path fill="#6366f1" opacity="1.000000" stroke="none" 
	d="
M417.575317,138.212311 
	C409.193054,120.261452 419.470276,93.835922 446.026184,91.184799 
	C459.020996,89.887505 469.818237,95.514183 477.159790,106.460403 
	C483.922821,116.543991 484.997437,127.406837 479.863953,138.663742 
	C473.867981,151.811981 463.249115,158.666138 449.240234,158.932953 
	C434.661987,159.210617 423.925629,152.018127 417.575317,138.212311 
z"/>
<path fill="#6366f1" opacity="1.000000" stroke="none" 
	d="
M422.174103,595.927734 
	C409.241272,587.552002 403.688629,573.341858 407.482117,558.913757 
	C411.227020,544.670593 423.358551,534.720764 438.184448,533.732788 
	C452.421234,532.784180 466.638153,541.718506 471.889862,554.914246 
	C477.240784,568.359314 473.407990,584.290222 462.119385,593.450256 
	C451.671783,601.927917 436.119537,604.614136 422.174103,595.927734 
z"/>
<path fill="#6366f1" opacity="1.000000" stroke="none" 
	d="
M584.336548,292.649414 
	C594.425659,303.376282 597.841125,315.389343 592.816528,329.157959 
	C587.821167,342.846619 577.305054,349.912811 563.302063,350.895325 
	C547.164917,352.027557 531.859680,342.287140 527.587219,322.651154 
	C524.419128,308.091278 534.123413,291.059967 548.684387,286.016296 
	C561.655029,281.523499 573.539856,283.268616 584.336548,292.649414 
z"/>
<path fill="#6366f1" opacity="1.000000" stroke="none" 
	d="
M216.698761,214.553131 
	C208.147949,227.957047 192.587250,234.376511 179.088089,230.300369 
	C163.849060,225.698853 153.604614,212.465866 153.760254,197.583847 
	C153.964218,178.084106 171.286636,161.860260 189.837311,163.794769 
	C210.554199,165.955170 224.770111,184.284470 220.951828,204.104248 
	C220.263290,207.678253 218.889725,211.117828 216.698761,214.553131 
z"/>
<path fill="#6366f1" opacity="1.000000" stroke="none" 
	d="
M400.536255,362.850250 
	C385.007538,357.823120 377.102722,344.988831 376.380524,331.342560 
	C375.643799,317.422394 385.185913,304.193970 398.756134,299.016449 
	C411.348267,294.212128 427.167480,298.193970 435.686646,308.312195 
	C445.764404,320.281555 446.833832,335.504059 438.554840,349.138397 
	C431.760529,360.327759 416.723267,366.457031 403.369995,363.482758 
	C402.557953,363.301880 401.740936,363.143555 400.536255,362.850250 
z"/>
<path fill="#6366f1" opacity="1.000000" stroke="none" 
	d="
M186.422302,406.122864 
	C208.554871,397.676453 231.627426,413.008148 232.202286,436.669434 
	C232.606018,453.286469 219.465195,468.462738 203.339310,470.234924 
	C185.159500,472.232849 169.403915,461.257263 165.772537,444.065338 
	C162.315872,427.700531 170.524963,412.405823 186.422302,406.122864 
z"/>
<path fill="#6366f1" opacity="1.000000" stroke="none" 
	d="
M405.353027,644.458862 
	C409.862640,635.649170 412.629791,626.551331 416.070740,617.721863 
	C416.838562,615.751587 417.440948,613.075439 420.468109,614.410706 
	C432.532562,619.731812 444.949585,619.782288 457.281799,616.897644 
	C459.026947,618.552429 458.237610,620.032166 457.697906,621.338440 
	C453.634430,631.173462 449.491730,640.975708 445.390900,650.795349 
	C444.641602,652.589722 443.589111,654.153809 441.486938,654.163086 
	C428.554504,654.220215 415.621735,654.191711 402.625122,654.191711 
	C401.868774,650.180420 404.342377,647.720276 405.353027,644.458862 
z"/>
</svg>