<?xml version="1.0" encoding="UTF-8" standalone="no"?>
<!-- Created with Inkscape (http://www.inkscape.org/) -->

<svg
   width="160.4091mm"
   height="157.73254mm"
   viewBox="0 0 160.4091 157.73254"
   version="1.1"
   id="svg5"
   xml:space="preserve"
   inkscape:export-filename="bitmap.png"
   inkscape:export-xdpi="96"
   inkscape:export-ydpi="96"
   xmlns:inkscape="http://www.inkscape.org/namespaces/inkscape"
   xmlns:sodipodi="http://sodipodi.sourceforge.net/DTD/sodipodi-0.dtd"
   xmlns="http://www.w3.org/2000/svg"
   xmlns:svg="http://www.w3.org/2000/svg"><sodipodi:namedview
     id="namedview7"
     pagecolor="#ffffff"
     bordercolor="#000000"
     borderopacity="0.25"
     inkscape:showpageshadow="2"
     inkscape:pageopacity="0.0"
     inkscape:pagecheckerboard="0"
     inkscape:deskcolor="#d1d1d1"
     inkscape:document-units="mm"
     showgrid="false" /><defs
     id="defs2" /><g
     inkscape:label="Camada 1"
     inkscape:groupmode="layer"
     id="layer1"
     transform="translate(-22.827597,-66.729734)"><g
       id="g71"
       transform="matrix(0.26458333,0,0,0.26458333,-0.04442016,44.700084)"><g
         id="g1760"
         transform="translate(15.632464,24.804328)"><path
           fill="#6366f1"
           opacity="1"
           stroke="none"
           d="m 230.93959,327.74377 c 42.43309,1.92243 81.18642,14.02256 117.04747,35.87574 37.77252,23.01806 66.97269,53.99279 87.64789,93.02166 9.71518,18.33957 16.73721,37.71146 21.30429,57.96113 0.35492,1.57379 1.01437,3.18847 0.0475,5.24218 -4.16259,0.0339 -8.22863,-1.60217 -12.51205,-1.73303 -7.44217,-0.22742 -14.65668,0.44098 -21.55801,3.25073 -3.91892,1.59552 -5.78702,0.42523 -6.69916,-3.6355 -6.78903,-30.22427 -21.19861,-56.64932 -40.80994,-80.3273 -21.47168,-25.92407 -47.88315,-44.96692 -79.47519,-56.99844 -27.37259,-10.42462 -55.53935,-15.18692 -84.67642,-12.89212 -33.03079,2.60147 -63.87946,12.45505 -92.32586,29.66824 -15.92675,9.63736 -30.32189,21.09619 -43.030615,34.69318 -1.083549,1.15933 -2.025368,2.73627 -4.934639,2.36581 0,-6.58981 -0.398964,-13.33008 0.09627,-20.00399 0.692001,-9.3256 0.696487,-18.64518 0.641617,-27.96808 -0.02074,-3.52469 1.163269,-5.84488 4.021492,-7.9419 31.913675,-23.41403 67.045555,-39.4834 106.090525,-46.57129 16.0623,-2.9158 32.2511,-4.76477 49.12485,-4.00702 z"
           id="path9"
           style="fill:#95d234;fill-opacity:1" /><path
           fill="#6366f1"
           opacity="1"
           stroke="none"
           d="m 633.08704,464.26385 c -9.22016,1.96454 -9.16761,1.96454 -9.1681,-7.07064 -0.003,-49.30243 -0.0856,-98.60489 -0.0141,-147.9072 0.0159,-10.92511 -3.92792,-19.67664 -12.54206,-26.45224 -27.87091,-21.92224 -55.70465,-43.89183 -83.51385,-65.89235 -17.3649,-13.73775 -34.66318,-27.55972 -51.97705,-41.36188 -1.01627,-0.81012 -1.90421,-1.78122 -2.83139,-2.65808 0.86987,-2.75494 3.27035,-3.51574 5.12896,-4.73874 7.24686,-4.76858 12.84162,-11.08618 17.28202,-18.41996 3.99228,-6.5936 3.93127,-6.76589 10.20578,-1.84676 22.40384,17.56421 44.79519,35.14478 67.11374,52.81708 22.97473,18.1918 45.82061,36.54638 68.79687,54.73619 13.79645,10.92236 20.7157,25.24893 21.76062,42.63177 1.60034,26.62223 0.47797,53.2695 0.69336,79.90406 0.22095,27.31448 0.0532,54.63217 0.0289,81.94845 -0.006,6.60562 -0.15796,6.82254 -6.33752,5.28324 -8.034,-2.00125 -16.10266,-1.85892 -24.62622,-0.97294 z"
           id="path11"
           style="fill:#95d234;fill-opacity:1" /><path
           fill="#6366f1"
           opacity="1"
           stroke="none"
           d="m 151.69846,551.98694 c 6.40608,-38.65155 38.0303,-65.05387 76.38224,-64.19116 37.29677,0.83892 68.55928,30.65844 72.40001,67.82397 3.63809,35.20471 -18.80218,69.9336 -54.32202,79.74982 -43.33113,11.97497 -84.51311,-15.41669 -93.53641,-55.71002 -2.02865,-9.0589 -2.51562,-18.0885 -0.92382,-27.67261 m 97.93182,-15.12848 c -4.35697,-4.01733 -9.38754,-6.92487 -15.07521,-8.49378 -26.54038,-7.32074 -50.51799,16.7132 -43.67861,43.71656 3.67507,14.50989 17.85439,26.32196 31.92391,26.59424 16.49829,0.31921 29.17114,-7.29108 35.3177,-22.66279 5.71344,-14.28851 2.55091,-27.38879 -8.48779,-39.15423 z"
           id="path13"
           style="fill:#95d234;fill-opacity:1" /><path
           fill="#6366f1"
           opacity="1"
           stroke="none"
           d="m 454.19888,403.77747 c -6.40265,-8.33909 -12.45111,-16.50742 -19.72345,-23.65488 -1.88009,-1.84778 -3.11511,-3.57318 0.0716,-5.47711 9.31613,-5.56586 15.55481,-13.85904 20.54193,-23.29209 2.60519,-4.92767 3.15198,-5.02575 7.08923,-0.95239 18.63977,19.28397 34.04614,40.90463 46.56748,64.6181 15.02786,28.46057 26.01498,58.44751 31.82528,90.0394 4.57306,24.86514 6.87146,50.01468 4.94184,75.48746 -1.76606,23.31335 -5.59686,46.18176 -11.06653,68.85693 -0.87073,3.60999 -2.40649,4.9964 -6.06452,4.94831 -10.65765,-0.1402 -21.31967,-0.12189 -31.97757,0.0173 -4.11651,0.0538 -4.85916,-1.6283 -3.72879,-5.24408 6.57599,-21.03577 10.76291,-42.54333 12.50013,-64.52118 2.79818,-35.40002 -0.5607,-70.09448 -11.53672,-103.98883 -8.95465,-27.65222 -21.95898,-53.18216 -39.43994,-76.83697 z"
           id="path15"
           style="fill:#95d234;fill-opacity:1" /><path
           fill="#6366f1"
           opacity="1"
           stroke="none"
           d="m 80.804489,325.86774 c -2.285576,1.00338 -3.960136,2.5534 -6.075218,2.64663 -1.627602,-0.84069 -1.69548,-2.24142 -1.652519,-3.54995 0.455368,-13.87055 1.764641,-27.57541 7.83081,-40.36991 1.113335,-2.3482 2.534279,-4.04239 5.050644,-5.15387 33.900684,-14.97387 69.269054,-24.13455 106.152894,-27.88931 57.75915,-5.87988 112.96974,3.71919 166.08711,26.5173 7.75104,3.32679 15.22577,7.29721 22.73963,10.92691 -0.65308,3.34827 -3.28034,4.33551 -4.90213,6.13025 -5.85517,6.47944 -10.95923,13.40708 -13.98948,21.68491 -1.35595,3.7041 -3.17465,4.7327 -7.13079,2.68161 -29.14099,-15.1087 -60.37861,-23.76221 -92.7381,-27.83997 -49.40874,-6.22622 -97.54343,-0.24542 -144.16771,17.50614 -12.62262,4.80587 -24.77675,10.6019 -37.205141,16.70926 z"
           id="path17"
           style="fill:#95d234;fill-opacity:1" /><path
           fill="#6366f1"
           opacity="1"
           stroke="none"
           d="m 443.54352,196.43994 c 30.09051,24.01819 59.90823,47.80594 89.72986,71.58881 4.89416,3.90314 5.01605,4.42935 0.28186,7.97534 -7.48255,5.60467 -13.28845,12.60025 -17.56543,20.83002 -2.00598,3.85983 -3.86951,4.10501 -7.23786,1.38296 -33.80887,-27.32172 -67.72284,-54.5133 -101.58337,-81.77119 -9.33786,-7.51702 -18.56253,-15.17463 -27.89942,-22.69284 -11.20178,-9.01989 -15.35024,-8.9495 -26.60122,0.3444 -11.03781,9.1178 -22.05908,18.25591 -33.04196,27.43962 -2.03135,1.69855 -4.02906,2.60961 -6.81571,2.07874 -13.40756,-2.55425 -26.85031,-4.91342 -40.41061,-6.54621 -1.40302,-0.16896 -2.99994,-0.24523 -3.9324,-1.67401 0.0861,-1.82534 1.5899,-2.50923 2.69845,-3.42234 21.60108,-17.79282 43.18927,-35.60161 64.86206,-53.30681 6.73709,-5.50376 13.93713,-10.16738 22.6915,-12.10143 13.57648,-2.9994 24.59805,2.78578 34.68994,10.40668 16.8746,12.7428 33.26724,26.12381 50.13431,39.46826 z"
           id="path19"
           style="fill:#95d234;fill-opacity:1" /><path
           fill="#6366f1"
           opacity="1"
           stroke="none"
           d="m 369.29926,507.86127 c 7.81179,19.79669 11.93203,39.84851 10.92901,60.85022 -1.44968,30.35492 -11.42001,57.57159 -29.76617,81.76172 -1.5701,2.07025 -3.31263,3.75396 -6.12061,3.75409 -15.4924,6e-4 -30.98483,0.007 -46.4772,-0.0207 -0.6113,-10e-4 -1.22202,-0.32098 -1.86841,-0.50225 -0.21426,-2.73438 2.08829,-3.38355 3.48077,-4.55054 19.95288,-16.7218 33.56608,-37.64569 38.80915,-63.07135 6.48172,-31.43256 0.75937,-60.85761 -17.98587,-87.42175 -16.90332,-23.95395 -40.33356,-37.71763 -68.4066,-44.24924 -4.2239,-0.98279 -5.58948,-2.44852 -4.2598,-6.80777 2.53244,-8.30264 0.5047,-16.47705 -1.46585,-24.60474 -0.57601,-2.37579 -1.96355,-4.63284 -1.23653,-7.74039 6.76698,-0.26242 13.3436,1.34217 19.86115,2.84675 39.64813,9.15261 69.75699,31.72805 91.89633,65.51928 4.95785,7.56714 8.70453,15.71866 12.61063,24.23667 z"
           id="path21"
           style="fill:#95d234;fill-opacity:1" /><path
           fill="#6366f1"
           opacity="1"
           stroke="none"
           d="m 78.644394,591.11823 c -8.359818,-45.51117 2.124199,-85.99531 30.498726,-121.70353 9.31872,-11.72723 20.50574,-21.80886 32.86907,-30.47787 3.46588,-2.43024 5.18562,-1.64856 5.85118,2.15091 1.81623,10.36813 5.86054,19.75744 12.19437,28.12915 2.24914,2.9729 1.01312,4.51245 -1.54386,6.40878 -19.66336,14.58286 -33.16527,33.62552 -39.58251,57.24597 -8.02468,29.5373 -5.56628,58.04468 10.42909,84.70111 7.25899,12.09723 16.53633,22.49952 27.57286,31.31543 1.66208,1.3277 3.58026,2.42847 4.44591,4.44684 -0.35575,1.07813 -1.13617,1.28436 -1.99698,1.27667 -15.31992,-0.13647 -30.63967,-0.35186 -45.95968,-0.37127 -3.33709,-0.004 -5.64098,-1.18213 -7.60601,-3.80976 C 92.576515,632.72583 82.92318,613.38769 78.644394,591.11823 Z"
           id="path23"
           style="fill:#95d234;fill-opacity:1" /><path
           fill="#6366f1"
           opacity="1"
           stroke="none"
           d="m 267.86755,168.87758 c -9.62222,7.869 -18.97938,15.50076 -29.57457,24.14227 -2.94987,-14.44453 -10.0094,-25.09225 -20.21356,-34.3166 8.26163,-6.91199 15.85399,-13.33965 23.52687,-19.66968 26.0835,-21.51849 52.02051,-43.219605 78.34857,-64.43509 23.58289,-19.003399 50.06638,-19.57959 77.47004,-10.22979 9.74859,3.326104 18.67303,8.516579 26.23053,15.489983 -0.68882,2.676155 -2.67652,3.491356 -4.25834,4.577896 -8.16308,5.607064 -14.31533,12.80764 -18.44921,21.861641 -3.18702,6.98001 -3.27835,6.74479 -9.66587,2.00301 -9.52041,-7.06752 -19.89901,-11.443844 -32.12082,-8.89996 -7.21423,1.5016 -13.21045,5.42101 -18.77743,9.96941 -24.12259,19.70895 -48.17389,39.50518 -72.51621,59.50691 z"
           id="path25"
           style="fill:#95d234;fill-opacity:1" /><path
           fill="#6366f1"
           opacity="1"
           stroke="none"
           d="m 612.75787,603.76379 c 6.60059,-7.00714 9.29065,-15.29217 9.9831,-24.29687 0.36975,-4.80902 0.27063,-9.65497 0.3554,-14.48474 0.0533,-3.03437 1.40656,-4.40314 4.43757,-3.36743 10.23681,3.49768 20.4732,3.92462 30.8189,0.40765 2.71045,-0.92151 4.60718,0.023 4.67237,3.2442 0.49884,24.67334 -3.61463,47.87268 -21.80609,66.35993 -13.15979,13.37384 -29.24671,20.40032 -47.94849,21.89215 -6.4906,0.5177 -12.9566,0.68817 -19.44812,0.73108 -3.05701,0.0203 -4.21613,-1.06922 -3.40961,-4.27826 2.83924,-11.29639 5.60364,-22.61347 8.20563,-33.96643 0.71179,-3.10566 2.65955,-3.35437 5.16565,-3.32758 4.97955,0.0533 9.94073,0.36536 14.87427,-1.04187 5.2492,-1.49731 9.89331,-3.87653 14.09942,-7.87183 z"
           id="path27"
           style="fill:#95d234;fill-opacity:1" /><path
           fill="#6366f1"
           opacity="1"
           stroke="none"
           d="m 565.60803,368.65344 c 5.94666,-0.68075 11.16065,-2.37509 16.23963,-4.47827 3.58484,-1.48447 5.63421,-1.20581 5.59143,3.44492 -0.32923,35.77697 0.0861,71.55435 -0.89484,107.33392 -0.67963,24.79059 -0.21991,49.61203 -0.32336,74.41946 -0.009,2.20716 0.5877,4.58472 -0.99561,6.90619 -2.35889,-1.26483 -2.29901,-3.31946 -2.40643,-5.2099 -2.49158,-43.81793 -13.15448,-85.8089 -29.86463,-126.15298 -5.74224,-13.86374 -4.89032,-27.58066 -4.69476,-41.63904 0.0508,-3.65582 0.47913,-7.30762 0.49451,-10.96231 0.0118,-2.79303 1.12231,-3.83035 3.91534,-3.71167 4.15503,0.17661 8.32282,0.0531 12.93872,0.0497 z"
           id="path29"
           style="fill:#95d234;fill-opacity:1" /><path
           fill="#6366f1"
           opacity="1"
           stroke="none"
           d="m 625.03088,542.11523 c -13.8189,-8.88604 -19.88867,-25.21746 -14.85015,-39.30801 5.4234,-15.16681 21.51556,-25.69254 36.15655,-23.64972 16.44415,2.29443 29.62488,15.44675 30.66303,31.54733 0.8504,13.18879 -4.83924,23.71949 -15.79438,30.96747 -11.66113,7.71509 -23.781,7.5448 -36.17505,0.44293 z"
           id="path31"
           style="fill:#95d234;fill-opacity:1" /><path
           fill="#6366f1"
           opacity="1"
           stroke="none"
           d="m 417.57532,138.21231 c -8.38227,-17.95086 1.89496,-44.376388 28.45086,-47.027511 12.99482,-1.297294 23.79206,4.329384 31.13361,15.275601 6.76303,10.08359 7.83765,20.94644 2.70416,32.20334 -5.99597,13.14824 -16.61483,20.0024 -30.62372,20.26921 -14.57824,0.27767 -25.3146,-6.91482 -31.66491,-20.72064 z"
           id="path33"
           style="fill:#95d234;fill-opacity:1" /><path
           fill="#6366f1"
           opacity="1"
           stroke="none"
           d="m 422.1741,595.92773 c -12.93283,-8.37573 -18.48547,-22.58587 -14.69198,-37.01397 3.7449,-14.24317 15.87643,-24.193 30.70233,-25.18097 14.23678,-0.94861 28.4537,7.98572 33.70541,21.18146 5.35092,13.44506 1.51813,29.37597 -9.77047,38.53601 -10.44761,8.47766 -25.99985,11.16388 -39.94529,2.47747 z"
           id="path35"
           style="fill:#95d234;fill-opacity:1" /><path
           fill="#6366f1"
           opacity="1"
           stroke="none"
           d="m 584.33655,292.64941 c 10.08911,10.72687 13.50458,22.73993 8.47998,36.50855 -4.99536,13.68866 -15.51148,20.75485 -29.51447,21.73737 -16.13714,1.13223 -31.44238,-8.60819 -35.71484,-28.24418 -3.16809,-14.55987 6.53619,-31.59118 21.09717,-36.63485 12.97064,-4.4928 24.85547,-2.74768 35.65216,6.63311 z"
           id="path37"
           style="fill:#95d234;fill-opacity:1" /><path
           fill="#6366f1"
           opacity="1"
           stroke="none"
           d="m 216.69876,214.55313 c -8.55081,13.40392 -24.11151,19.82338 -37.61067,15.74724 -15.23903,-4.60152 -25.48348,-17.8345 -25.32784,-32.71652 0.20397,-19.49974 17.52639,-35.72359 36.07706,-33.78908 20.71689,2.1604 34.9328,20.4897 31.11452,40.30948 -0.68854,3.574 -2.06211,7.01358 -4.25307,10.44888 z"
           id="path39"
           style="fill:#95d234;fill-opacity:1" /><path
           fill="#6366f1"
           opacity="1"
           stroke="none"
           d="m 400.53625,362.85025 c -15.52871,-5.02713 -23.43353,-17.86142 -24.15573,-31.50769 -0.73672,-13.92017 8.80539,-27.14859 22.37561,-32.32611 12.59214,-4.80432 28.41135,-0.82248 36.93052,9.29574 10.07775,11.96937 11.14718,27.19187 2.86819,40.82621 -6.79431,11.18936 -21.83157,17.31863 -35.18484,14.34436 -0.81205,-0.18088 -1.62906,-0.33921 -2.83375,-0.63251 z"
           id="path41"
           style="fill:#95d234;fill-opacity:1" /><path
           fill="#6366f1"
           opacity="1"
           stroke="none"
           d="m 186.4223,406.12286 c 22.13257,-8.44641 45.20513,6.88529 45.77999,30.54657 0.40373,16.61704 -12.7371,31.79331 -28.86298,33.56549 -18.17981,1.99793 -33.9354,-8.97766 -37.56677,-26.16958 -3.45667,-16.36481 4.75242,-31.65952 20.64976,-37.94248 z"
           id="path43"
           style="fill:#95d234;fill-opacity:1" /><path
           fill="#6366f1"
           opacity="1"
           stroke="none"
           d="m 405.35303,644.45886 c 4.50961,-8.80969 7.27676,-17.90753 10.71771,-26.737 0.76782,-1.97027 1.37021,-4.64642 4.39737,-3.31115 12.06445,5.3211 24.48148,5.37158 36.81369,2.48693 1.74515,1.65479 0.95581,3.13453 0.41611,4.4408 -4.06348,9.83502 -8.20618,19.63727 -12.30701,29.45691 -0.7493,1.79437 -1.80179,3.35846 -3.90396,3.36774 -12.93244,0.0571 -25.86521,0.0286 -38.86182,0.0286 -0.75635,-4.01129 1.71726,-6.47143 2.72791,-9.73285 z"
           id="path45"
           style="fill:#95d234;fill-opacity:1" /></g></g></g></svg>
